# xmcd
#
# Track frame offsets:
#	150
#	14597
#	35131
#	53136
#	74534
#	92585
#	111235
#	130813
#	153295
#	173798
#	194042
#	214609
#	232469
#	245241
#	260345
#	281340
#	300403
#	318422
#
# Disc length: 4515 seconds
#
# Revision: 0
# Processed by: cddbd v1.5PL3 Copyright (c) Steve Scherf et al.
# Submitted via: dBpowerAMP V4.0
#
DISCID=0e11a112
DTITLE=Various Artist - MM BG Ballads
DYEAR=2002
DGENRE=
TTITLE0=Karizma - Kolko mi lipsvash
TTITLE1=Sofia - Sin Talisman
TTITLE2=Irina Florin - Moga
TTITLE3=Aveniu - Propileni Dni
TTITLE4=Grafa - Davam Vsichko za Teb
TTITLE5=Santra - Bez Teb
TTITLE6=Te - Ti
TTITLE7=Sleng - Moi Sviat
TTITLE8=Ani Lozanova - Ogledalo
TTITLE9=Kamen Vo. - I Malko Taga...
TTITLE10=Mastilo - Vij Me Pak
TTITLE11=Neti - Iagodi
TTITLE12=Doni i Momchil - Sliapo momiche
TTITLE13=Stanioli - Gara za Dvama
TTITLE14=Nina Nikolina - Neka Vali
TTITLE15=Gravity Co. - E.O.
TTITLE16=Beloslava - Ulici
TTITLE17=Marius - Ti
EXTD=
EXTT0=
EXTT1=
EXTT2=
EXTT3=
EXTT4=
EXTT5=
EXTT6=
EXTT7=
EXTT8=
EXTT9=
EXTT10=
EXTT11=
EXTT12=
EXTT13=
EXTT14=
EXTT15=
EXTT16=
EXTT17=
PLAYORDER=
